<svg width="121.000000" height="56.000000" viewBox="0 0 121 56" fill="none" xmlns="http://www.w3.org/2000/svg" xmlns:xlink="http://www.w3.org/1999/xlink">
	<desc>
			Created with Pixso.
	</desc>
	<defs>
		<clipPath id="clip19_585">
			<rect id="Frame" width="120.261200" height="56.000000" fill="white" fill-opacity="0"/>
		</clipPath>
	</defs>
	<rect id="Frame" width="120.261200" height="56.000000" fill="#FFFFFF" fill-opacity="0"/>
	<g clip-path="url(#clip19_585)">
		<path id="Vector" d="M47.67 47.53C47.26 48.21 46.04 48.89 44.62 48.89C41.3 48.89 38.66 46.31 38.66 42.18C38.66 38.05 41.5 35.21 44.48 35.21C47.26 35.21 47.87 36.49 48.21 36.83L48.61 35.48L51.46 35.48L51.46 41.1L48.07 41.1C48 39.54 47.06 38.66 45.91 38.66C44.35 38.66 43.33 40.35 43.33 42.25C43.33 44.21 44.28 45.77 45.91 45.77C46.99 45.77 47.46 45.36 47.73 44.82L47.73 44.01L46.58 44.01L46.58 41.98L52.81 41.98L52.81 44.01L52.07 44.01L52.07 48.75L48.28 48.75L47.67 47.53Z" fill="#FFFFFF" fill-opacity="1.000000" fill-rule="nonzero"/>
		<path id="Vector" d="M53.35 39.27L57.96 39.27L57.96 43.87C57.96 45.5 58.23 46.24 58.97 46.24C59.65 46.24 60.19 45.63 60.19 44.82L60.19 41.77L58.91 41.77L58.91 39.27L63.85 39.27L63.85 46.24L64.8 46.24L64.8 48.75L61.21 48.75L60.67 47.53C60.26 48 59.58 49.02 57.96 49.02C55.11 49.02 54.17 47.53 54.17 44.42L54.17 41.77L53.35 41.77L53.35 39.27Z" fill="#FFFFFF" fill-opacity="1.000000" fill-rule="nonzero"/>
		<path id="Vector" d="M70.89 48.75L65.54 48.75L65.54 46.24L66.36 46.24L66.36 41.71L65.54 41.71L65.54 39.27L69.13 39.27L69.67 40.49C70.15 39.61 70.69 38.93 72.59 38.93L72.59 42.18C70.89 42.18 69.88 42.59 69.88 44.28L69.88 46.24L70.82 46.24L70.82 48.75L70.89 48.75Z" fill="#FFFFFF" fill-opacity="1.000000" fill-rule="nonzero"/>
		<path id="Vector" d="M73.19 39.27L77.8 39.27L77.8 43.87C77.8 45.5 78.07 46.24 78.81 46.24C79.49 46.24 80.03 45.63 80.03 44.82L80.03 41.77L78.81 41.77L78.81 39.27L83.76 39.27L83.76 46.24L84.71 46.24L84.71 48.75L81.12 48.75L80.58 47.53C80.17 48 79.49 49.02 77.87 49.02C75.02 49.02 74.07 47.53 74.07 44.42L74.07 41.77L73.26 41.77L73.26 39.27L73.19 39.27Z" fill="#FFFFFF" fill-opacity="1.000000" fill-rule="nonzero"/>
		<path id="Vector" d="M38.12 17.4C36.49 17.47 35.61 17.53 35.41 17.53C35.07 17.53 34.66 17.33 34.33 16.86C33.99 16.38 33.78 15.91 33.78 15.43C33.78 14.69 35.95 14.35 40.29 14.35C42.52 14.35 44.14 14.55 45.16 15.03C46.18 15.5 46.72 16.04 46.72 16.72C46.72 16.92 46.58 17.13 46.38 17.26C46.18 17.47 45.84 17.53 45.5 17.53C45.16 17.53 44.48 17.53 43.6 17.47C42.66 17.4 41.84 17.4 41.1 17.4C41.17 17.6 41.17 17.8 41.17 18.01C41.17 18.28 41.1 18.75 40.89 19.43C40.69 20.11 40.49 21.12 40.15 22.41C39.81 23.7 39.47 25.18 39.13 27.01C38.73 28.84 38.52 29.86 38.32 30.2C38.12 30.53 38.05 30.74 37.92 30.74C37.58 30.74 37.17 30.47 36.7 29.86C36.22 29.25 35.95 28.77 35.95 28.44C35.95 28.1 36.29 26.54 36.9 23.9C37.58 21.26 37.98 19.09 38.12 17.4Z" fill="#FFFFFF" fill-opacity="1.000000" fill-rule="nonzero"/>
		<path id="Vector" d="M46.72 22.95L46.58 20.38C46.58 19.5 46.85 19.09 47.4 19.09C47.67 19.09 48 19.23 48.28 19.43C48.55 19.63 48.82 20.04 48.95 20.51C49.49 20.04 50.04 19.7 50.65 19.43C51.25 19.16 51.8 19.02 52.27 19.02C53.35 19.02 53.96 19.29 53.96 19.84C53.96 20.11 53.9 20.31 53.83 20.44C53.76 20.58 53.62 20.65 53.62 20.72C53.56 20.78 53.49 20.85 53.35 20.99C53.22 21.05 53.15 21.19 53.08 21.19C52.74 21.39 52.47 21.6 52.34 21.66C51.66 22.07 51.05 22.61 50.58 23.22C50.1 23.83 49.7 24.64 49.49 25.73C49.09 27.49 48.68 28.77 48.28 29.65C47.87 30.53 47.46 30.94 46.99 30.94C46.51 30.94 46.18 30.74 45.91 30.26C45.63 29.79 45.57 29.38 45.57 28.98C45.57 28.57 45.7 27.96 46.04 27.15C46.31 26.34 46.51 25.66 46.65 25.05C46.72 24.37 46.72 23.7 46.72 22.95Z" fill="#FFFFFF" fill-opacity="1.000000" fill-rule="nonzero"/>
		<path id="Vector" d="M63.44 24.37C63.71 24.64 63.85 24.85 63.85 25.05C63.85 25.25 63.78 25.66 63.58 26.27C63.38 26.88 63.31 27.35 63.24 27.69C63.17 28.03 63.11 28.3 63.11 28.5C63.04 28.71 63.04 28.84 63.04 28.98C63.04 29.11 62.97 29.25 62.97 29.38C62.97 29.52 62.9 29.65 62.9 29.79C62.9 29.86 62.83 29.99 62.83 30.13C62.77 30.26 62.77 30.33 62.7 30.4C62.63 30.47 62.63 30.53 62.56 30.6C62.5 30.74 62.29 30.81 62.09 30.81C61.89 30.81 61.62 30.6 61.28 30.2C60.94 29.79 60.74 29.25 60.6 28.64C59.18 30.13 57.96 30.81 57.01 30.81C56.33 30.81 55.66 30.47 54.91 29.72C54.17 28.98 53.76 28.3 53.76 27.55C53.76 26.81 54.1 25.79 54.71 24.44C55.39 23.09 56.27 21.87 57.42 20.72C58.57 19.56 59.65 19.02 60.8 19.02C61.41 19.02 62.16 19.43 63.04 20.11C63.85 20.85 64.32 21.53 64.32 22.14C64.12 22.88 63.92 23.56 63.44 24.37ZM56.81 27.96C57.42 27.96 58.23 27.55 59.25 26.74C60.26 25.93 60.87 24.85 61.14 23.63C61.14 23.42 61.28 23.36 61.55 23.29C61.48 22.41 61.34 22 61.14 22C60.53 22 59.85 22.41 59.11 23.22C58.37 24.03 57.76 24.85 57.28 25.73C56.81 26.61 56.54 27.28 56.54 27.69C56.54 27.83 56.54 27.89 56.6 27.96C56.54 27.96 56.67 27.96 56.81 27.96Z" fill="#FFFFFF" fill-opacity="1.000000" fill-rule="nonzero"/>
		<path id="Vector" d="M73.33 19.09C73.74 19.09 74.07 19.23 74.48 19.5C74.82 19.77 75.02 20.04 75.02 20.38C75.02 20.92 74.55 22.21 73.67 24.17C72.79 26.13 71.91 27.76 71.16 28.98C70.42 30.2 69.81 30.81 69.4 30.81C69.2 30.81 68.86 30.67 68.39 30.33C67.91 29.99 67.71 29.72 67.57 29.45C67.24 28.57 66.76 26.95 66.22 24.58C65.68 22.21 65.48 20.72 65.48 20.04C65.48 19.36 65.68 19.09 66.08 19.09C66.63 19.09 67.1 19.29 67.71 19.7C68.59 20.38 69.13 21.33 69.27 22.48C69.33 23.02 69.33 23.7 69.4 24.51C69.4 25.32 69.47 26 69.61 26.54C69.94 25.86 70.42 24.78 70.96 23.42C71.5 22.07 71.98 20.99 72.31 20.17C72.65 19.5 73.06 19.09 73.33 19.09Z" fill="#FFFFFF" fill-opacity="1.000000" fill-rule="nonzero"/>
		<path id="Vector" d="M83.69 25.39C82.67 26 81.66 26.27 80.58 26.27C79.49 26.27 78.61 26.2 77.93 26.07C77.8 26.47 77.73 26.88 77.73 27.28C77.73 27.69 77.8 27.96 77.93 28.16C78.07 28.37 78.41 28.44 78.95 28.44C80.1 28.44 81.05 28.3 81.86 28.1C82.67 27.89 83.08 27.76 83.15 27.76C83.76 27.76 84.1 27.96 84.1 28.37C84.1 28.98 83.62 29.52 82.61 30.06C81.66 30.6 80.51 30.87 79.22 30.87C77.93 30.87 76.92 30.47 76.11 29.65C75.36 28.84 74.96 27.89 74.96 26.81C74.96 25.73 75.29 24.58 75.9 23.36C76.58 22.14 77.33 21.12 78.34 20.31C79.29 19.5 80.3 19.09 81.25 19.09C82.2 19.09 83.08 19.56 83.96 20.51C84.77 21.46 85.18 22.41 85.18 23.36C85.18 24.1 84.71 24.78 83.69 25.39ZM82.07 22.34C81.73 22.07 81.46 21.93 81.18 21.93C80.91 21.93 80.58 22.14 80.1 22.54C79.63 22.95 79.22 23.49 78.81 24.1C78.95 24.1 79.15 24.1 79.42 24.1C81.52 24.1 82.54 23.76 82.54 23.02C82.54 22.81 82.4 22.61 82.07 22.34Z" fill="#FFFFFF" fill-opacity="1.000000" fill-rule="nonzero"/>
		<path id="Vector" d="M90.73 13.74C91.34 14.42 91.61 15.03 91.61 15.64C91.61 16.25 91.55 17.33 91.34 18.89C91.14 20.44 90.94 21.66 90.8 22.61C89.51 28.1 88.63 30.87 88.16 30.87C87.82 30.87 87.41 30.6 86.94 30.06C86.47 29.52 86.2 29.04 86.2 28.71C86.2 28.71 86.4 27.89 86.81 26.34C87.21 24.78 87.62 22.81 88.02 20.38C88.43 17.94 88.63 15.64 88.63 13.4C88.63 12.93 88.84 12.73 89.31 12.73C89.72 12.73 90.19 13.06 90.73 13.74Z" fill="#FFFFFF" fill-opacity="1.000000" fill-rule="nonzero"/>
		<path id="Vector" d="M24.71 54.23C24.71 55.25 23.9 56 22.95 56C21.93 56 21.19 55.18 21.19 54.23C21.19 53.29 22 52.47 22.95 52.47C23.9 52.41 24.71 53.22 24.71 54.23Z" fill="#FFFFFF" fill-opacity="1.000000" fill-rule="nonzero"/>
		<path id="Vector" d="M9.2 54.23C9.2 55.21 8.42 56 7.44 56C6.47 56 5.68 55.21 5.68 54.23C5.68 53.26 6.47 52.47 7.44 52.47C8.42 52.47 9.2 53.26 9.2 54.23Z" fill="#FFFFFF" fill-opacity="1.000000" fill-rule="evenodd"/>
		<path id="Vector" d="M21.39 1.69L21.39 13.54L9.07 13.54L9.07 1.69L21.39 1.69Z" stroke="#FFFFFF" stroke-opacity="1.000000" stroke-width="3.365900"/>
		<path id="Vector" d="M19.36 3.04L10.96 3.04C10.63 3.04 10.29 2.77 10.29 2.36L10.29 0.67C10.29 0.33 10.56 0 10.96 0L19.36 0C19.7 0 20.04 0.27 20.04 0.67L20.04 2.36C20.04 2.77 19.77 3.04 19.36 3.04Z" fill="#FFFFFF" fill-opacity="1.000000" fill-rule="nonzero"/>
		<path id="Vector" d="M5.07 52.47L9.88 52.47L9.88 54.1L5.07 54.1L5.07 52.47Z" fill="#FFFFFF" fill-opacity="1.000000" fill-rule="evenodd"/>
		<path id="Vector" d="M20.51 52.47L25.32 52.47L25.32 54.1L20.51 54.1L20.51 52.47Z" fill="#FFFFFF" fill-opacity="1.000000" fill-rule="evenodd"/>
		<path id="Vector" d="M27.08 12.45L3.31 12.45C1.48 12.45 0 13.94 0 15.77L0 49.16C0 50.98 1.48 52.47 3.31 52.47L27.08 52.47C28.91 52.47 30.4 50.98 30.4 49.16L30.4 15.77C30.4 13.94 28.91 12.45 27.08 12.45ZM9.27 43.13C9.27 43.87 8.66 44.42 7.99 44.42C7.24 44.42 6.7 43.81 6.7 43.13L6.7 23.02C6.7 22.27 7.31 21.73 7.99 21.73C8.73 21.73 9.27 22.34 9.27 23.02L9.27 43.13ZM16.52 43.13C16.52 43.87 15.91 44.42 15.23 44.42C14.49 44.42 13.94 43.81 13.94 43.13L13.94 23.02C13.94 22.27 14.55 21.73 15.23 21.73C15.98 21.73 16.52 22.34 16.52 23.02L16.52 43.13ZM23.7 43.13C23.7 43.87 23.09 44.42 22.41 44.42C21.73 44.42 21.12 43.81 21.12 43.13L21.12 23.02C21.12 22.27 21.73 21.73 22.41 21.73C23.09 21.73 23.7 22.34 23.7 23.02L23.7 43.13Z" fill="#FFFFFF" fill-opacity="1.000000" fill-rule="nonzero"/>
		<path id="Vector" d="M93.98 42.59C126.55 42.59 121.68 13.61 111.72 6.7C104.68 1.76 89.51 2.7 79.9 7.99" stroke="#FFFFFF" stroke-opacity="1.000000" stroke-width="3.000000" stroke-linejoin="round" stroke-dasharray="10.2931 10.2931"/>
		<path id="Vector" d="M81.59 2.91L80.37 7.65L85.11 8.87L82.61 10.36L77.87 9.14L79.09 4.46L81.59 2.91Z" fill="#FFFFFF" fill-opacity="1.000000" fill-rule="nonzero"/>
		<path id="Vector" d="M97.5 42.79C97.5 44.96 95.74 46.65 93.64 46.65C91.48 46.65 89.78 44.89 89.78 42.79C89.78 40.62 91.55 38.93 93.64 38.93C95.74 38.86 97.5 40.62 97.5 42.79Z" fill="#FFFFFF" fill-opacity="1.000000" fill-rule="nonzero"/>
	</g>
</svg>
